<?xml version="1.0" encoding="UTF-8" standalone="no" ?>
<!DOCTYPE svg PUBLIC "-//W3C//DTD SVG 1.1//EN" "http://www.w3.org/Graphics/SVG/1.1/DTD/svg11.dtd">
<svg xmlns="http://www.w3.org/2000/svg" xmlns:xlink="http://www.w3.org/1999/xlink" version="1.1" width="1080" height="1080" viewBox="0 0 1080 1080" xml:space="preserve">
<desc>Created with Fabric.js 5.2.4</desc>
<defs>
</defs>
<g transform="matrix(1 0 0 1 540 540)" id="1739a447-4ece-4edb-88c6-aa6677d4eafc"  >
<rect style="stroke: none; stroke-width: 1; stroke-dasharray: none; stroke-linecap: butt; stroke-dashoffset: 0; stroke-linejoin: miter; stroke-miterlimit: 4; fill: rgb(255,255,255); fill-rule: nonzero; opacity: 1; visibility: hidden;" vector-effect="non-scaling-stroke"  x="-540" y="-540" rx="0" ry="0" width="1080" height="1080" />
</g>
<g transform="matrix(1 0 0 1 540 540)" id="5a55622c-73da-401e-b087-c502d23bb748"  >
</g>
<g transform="matrix(1 0 0 1 540 540)"  >
<rect style="stroke: none; stroke-width: 1; stroke-dasharray: none; stroke-linecap: butt; stroke-dashoffset: 0; stroke-linejoin: miter; stroke-miterlimit: 4; fill: rgb(255,255,255); fill-rule: nonzero; opacity: 1; visibility: hidden;" vector-effect="non-scaling-stroke"  x="-540" y="-540" rx="0" ry="0" width="1080" height="1080" />
</g>
<g transform="matrix(0.2 0 0 0.2 542.48 540.05)"  >
<linearGradient id="SVGID_SVGID_id1_3_3" gradientUnits="userSpaceOnUse" gradientTransform="matrix(1 0 0 1 0 0)"  x1="1611.57" y1="4951.74" x2="6895.54" y2="4951.74">
<stop offset="0%" style="stop-color:rgb(193,92,137);stop-opacity: 1"/>
<stop offset="11.3725%" style="stop-color:rgb(182,87,131);stop-opacity: 0.976471"/>
<stop offset="23.1373%" style="stop-color:rgb(171,82,124);stop-opacity: 0.94902"/>
<stop offset="100%" style="stop-color:rgb(24,15,42);stop-opacity: 0.6"/>
</linearGradient>
<path style="stroke: none; stroke-width: 1; stroke-dasharray: none; stroke-linecap: butt; stroke-dashoffset: 0; stroke-linejoin: miter; stroke-miterlimit: 4; fill: url(#SVGID_SVGID_id1_3_3); fill-rule: evenodd; opacity: 1;" vector-effect="non-scaling-stroke"  transform=" translate(-4253.56, -4951.74)" d="M 4253.56 2309.76 C 5712.6900000000005 2309.76 6895.540000000001 3492.61 6895.540000000001 4951.74 C 6895.540000000001 6410.87 5712.6900000000005 7593.719999999999 4253.560000000001 7593.719999999999 C 2794.430000000001 7593.719999999999 1611.5800000000013 6410.869999999999 1611.5800000000013 4951.74 C 1611.5800000000013 3492.6099999999997 2794.430000000001 2309.7599999999998 4253.560000000001 2309.7599999999998 z M 3167.4600000000005 5624.48 C 3267.1100000000006 5194.12 3464.3500000000004 4341.58 3661.5700000000006 3489.0399999999995 C 3584.6900000000005 3528.2699999999995 3507.8200000000006 3567.5099999999993 3434.830000000001 3628.7399999999993 C 3361.840000000001 3689.979999999999 3292.7400000000007 3773.2199999999993 3243.4300000000007 3859.6399999999994 C 3194.120000000001 3946.0599999999995 3164.6100000000006 4035.6599999999994 3151.710000000001 4143.03 C 3138.810000000001 4250.389999999999 3142.520000000001 4375.509999999999 3152.330000000001 4463.53 C 3162.140000000001 4551.54 3178.040000000001 4602.44 3193.9500000000007 4653.34 C 3117.370000000001 4659.7300000000005 3040.7800000000007 4666.12 2965.270000000001 4636.27 C 2889.7600000000007 4606.42 2815.330000000001 4540.34 2781.600000000001 4428.740000000001 C 2747.870000000001 4317.14 2754.8400000000006 4160.030000000001 2808.7000000000007 4009.4200000000005 C 2862.560000000001 3858.8100000000004 2963.290000000001 3714.7000000000007 3071.0300000000007 3604.1600000000008 C 3178.7600000000007 3493.620000000001 3293.4900000000007 3416.670000000001 3402.5900000000006 3369.8200000000006 C 3511.6800000000007 3322.9700000000007 3615.140000000001 3306.2100000000005 3718.5900000000006 3289.4600000000005 C 3866.5200000000004 3291.4600000000005 4014.4400000000005 3293.4700000000007 4162.370000000001 3295.4800000000005 C 4291.280000000001 3840.3500000000004 4420.200000000001 4385.2300000000005 4549.110000000001 4930.110000000001 C 4631.820000000001 4535.650000000001 4714.530000000001 4141.1900000000005 4781.330000000001 3883.5200000000004 C 4848.130000000001 3625.8500000000004 4899.030000000001 3504.9600000000005 4956.290000000001 3417.4800000000005 C 5013.550000000001 3330.0000000000005 5077.170000000001 3275.9200000000005 5138.670000000001 3238.1700000000005 C 5200.170000000001 3200.4300000000007 5259.560000000001 3179.0200000000004 5332.740000000001 3172.2600000000007 C 5405.93 3165.5000000000005 5492.93 3173.4000000000005 5577.9400000000005 3206.270000000001 C 5662.960000000001 3239.140000000001 5746.000000000001 3296.980000000001 5792.370000000001 3364.330000000001 C 5838.740000000001 3431.6800000000007 5848.450000000001 3508.540000000001 5842.410000000001 3577.370000000001 C 5836.370000000001 3646.2000000000007 5814.580000000001 3707.020000000001 5792.790000000001 3767.8200000000006 C 5774.400000000001 3677.0300000000007 5756.010000000001 3586.2500000000005 5700.510000000001 3536.1700000000005 C 5645.020000000001 3486.0900000000006 5552.420000000001 3476.7100000000005 5484.760000000001 3513.8200000000006 C 5417.100000000001 3550.9200000000005 5374.380000000001 3634.5100000000007 5343.470000000001 3736.7400000000007 C 5312.5700000000015 3838.9700000000007 5293.480000000001 3959.8600000000006 5282.240000000002 4026.9700000000007 C 5271.000000000002 4094.080000000001 5267.6100000000015 4107.43 5264.210000000002 4120.77 C 5364.1100000000015 4121.18 5464.020000000002 4121.580000000001 5563.920000000002 4121.990000000001 C 5558.030000000002 4165.670000000001 5552.140000000002 4209.340000000001 5546.250000000002 4253.02 C 5439.100000000002 4255.72 5331.940000000001 4258.43 5224.790000000002 4261.14 C 5069.540000000002 5005.83 4914.300000000002 5750.52 4794.4000000000015 6177.820000000001 C 4674.510000000001 6605.120000000001 4589.960000000002 6715.02 4498.1500000000015 6793.420000000001 C 4406.340000000001 6871.810000000001 4307.250000000002 6918.690000000001 4196.980000000001 6927.750000000001 C 4086.7100000000014 6936.810000000001 3965.2400000000016 6908.040000000001 3877.8800000000015 6858.500000000001 C 3790.5100000000016 6808.960000000001 3737.2400000000016 6738.630000000001 3708.4600000000014 6644.410000000001 C 3679.680000000001 6550.180000000001 3675.3900000000012 6432.040000000001 3707.8400000000015 6329.340000000001 C 3740.2800000000016 6226.640000000001 3809.4600000000014 6139.370000000001 3928.0800000000017 6066.770000000001 C 4046.7000000000016 5994.180000000001 4214.750000000002 5936.250000000001 4267.780000000002 5931.530000000002 C 4320.810000000001 5926.8200000000015 4258.8200000000015 5975.3200000000015 4195.870000000002 6024.050000000002 C 4132.920000000002 6072.790000000002 4069.020000000002 6121.770000000002 4019.5700000000015 6179.660000000002 C 3970.1200000000017 6237.550000000002 3935.1300000000015 6304.3600000000015 3917.6300000000015 6367.980000000001 C 3900.1300000000015 6431.600000000001 3900.1300000000015 6492.050000000001 3912.5800000000013 6533.050000000001 C 3925.030000000001 6574.050000000001 3949.9200000000014 6595.620000000001 3983.1500000000015 6607.460000000001 C 4016.3700000000013 6619.310000000001 4057.9300000000017 6621.4400000000005 4101.1500000000015 6594.750000000001 C 4144.370000000002 6568.060000000001 4189.260000000001 6512.560000000001 4235.350000000001 6407.950000000001 C 4281.440000000001 6303.35 4328.720000000001 6149.650000000001 4271.690000000001 5781.130000000001 C 4214.670000000001 5412.620000000001 4053.3400000000015 4829.300000000001 3892.0000000000014 4245.970000000001 C 3749.1900000000014 4852.090000000001 3606.3700000000013 5458.210000000001 3463.5500000000015 6064.3200000000015 C 3453.2000000000016 6064.800000000001 3442.8500000000017 6065.280000000002 3376.2000000000016 6066.430000000001 C 3309.540000000002 6067.580000000001 3186.5700000000015 6069.390000000001 3063.6100000000015 6071.200000000002 C 3065.6900000000014 6063.030000000002 3067.7800000000016 6054.850000000001 3167.4300000000017 5624.490000000002 z" stroke-linecap="round" />
</g>
</svg>